# xmcd CD database file
#
# Track frame offsets:
#	150
#	17992
#	40192
#	61975
#	85710
#	104465
#	126045
#	145150
#
# Disc length: 2211 seconds
#
# Revision: 0
# Processed by: cddbd v1.5.1PL0 Copyright (c) Steve Scherf et al.
# Submitted via: CDex 1.51
#
DISCID=6508a108
DTITLE=Flying Kids - Flying Kids Now! -More Best Selected By Takashi Hamazaki-
DYEAR=1900
DGENRE=Rock
TTITLE0=恋人だけじゃ愛が足りない
TTITLE1=明日への力
TTITLE2=歌の思い出
TTITLE3=Brothers and Sisters
TTITLE4=僕が言える事のすべて
TTITLE5=野生のハマザキ
TTITLE6=傘がない
TTITLE7=一日の終り (Part ?)
EXTD=
EXTT0=
EXTT1=
EXTT2=
EXTT3=
EXTT4=
EXTT5=
EXTT6=
EXTT7=
PLAYORDER=
